<svg xmlns="http://www.w3.org/2000/svg" viewBox="0 0 132 24">
  <path d="M0,0H7.112c3.9,0,5.708.373,7.393,2.237a5.3,5.3,0,0,1,1.373,3.792,5.19,5.19,0,0,1-2.682,4.631A5.3,5.3,0,0,1,17,16.006a6.607,6.607,0,0,1-2.121,5C12.758,22.782,11.23,23,7.33,23H0ZM23.309,23l1.212-3.326h7.988L33.628,23H40L30.862,0H26.231L17,23ZM61,14.906A11.9,11.9,0,0,1,49.251,24a12,12,0,1,1-.062-24A11.872,11.872,0,0,1,61,9.219H54.781a6.022,6.022,0,0,0-5.624-4.031c-3.989,0-6.22,3.469-6.22,6.75,0,3.5,2.387,6.875,6.251,6.875a6.2,6.2,0,0,0,5.592-3.906ZM70.151,23H76V0H70.151V10.349H70.09L63.622,0H57.5l7.581,11.469L57,23h6.839l6.251-9.946h.062ZM78,0H91V5.159H83.824V9.076h6.919v5.159H83.824V23H78ZM98.022,0H92V23h13V17.84H98.022ZM107,23h6V0h-6ZM122.386,0H115V23h5.524V15.789h2.5c3.51,0,5.036-.653,6.592-1.989A8.38,8.38,0,0,0,132,7.77a7.883,7.883,0,0,0-2.656-6.092C128.124.653,126.567,0,122.386,0ZM7.279,9H5V5H7.279C8.265,5,10,5,10,6.948,10,9,8.163,9,7.279,9Zm115.595,1.63h-2.35V5.159h2.137c1.251,0,3.814,0,3.814,2.7C126.475,10.63,123.973,10.63,122.874,10.63ZM30.955,15.012H26.138L28.5,7.148h.093ZM7.918,19H5V14H7.918C8.9,14,11,14,11,16.37,11,19,8.705,19,7.918,19Z" fill="currentColor" fill-rule="evenodd"></path>
</svg>