<svg xmlns="http://www.w3.org/2000/svg" viewBox="0 0 131 35">
  <path d="M129.035 21.178c-.218-1.091-.873-2.401-1.092-2.838h.437c.218 0 .437.218.437 0v-.218c.218-.874-.655-1.965-1.529-2.402-1.31-.437-2.62.437-3.711 1.092-.874.655-1.965 1.528-2.839 2.62-.655.873-1.31 1.746-1.746 2.838l-.219.437c-.436 1.091-.873 2.183-1.091 3.493-.437.437-2.184 2.183-5.022 3.493-1.31.655-3.057 1.31-4.803 1.529h-.219c-2.401 0-5.24-1.529-6.331-6.114-.437-2.183-.655-6.55 2.62-12.445 1.528-2.62 3.493-4.803 5.676-6.768 2.839-2.183 5.459-3.057 7.86-2.183 1.092.436 1.965 1.965 1.965 3.275v1.091c0 .655 0 1.31.219 1.529.218.218.436.218.655.218.655 0 1.091-.218 1.31-.437.436-.436.436-1.091.218-2.183 0-1.528-.655-2.838-1.747-3.93-1.31-1.31-3.056-2.183-5.021-2.183-3.712 0-7.86 2.401-10.044 4.803-2.401 2.62-4.366 5.677-5.676 8.952-.874 2.183-1.31 4.585-1.092 6.986 0 2.62.655 5.022 1.747 6.987 1.31 2.402 3.493 3.712 6.113 4.148h1.31c1.965 0 3.93-.436 5.895-1.528 1.31-.655 3.057-1.965 4.367-2.838 0 .436.218.873.436 1.528.874 1.528 1.965 2.62 3.275 2.62h.437c1.528 0 3.493-1.092 4.803-2.838 2.184-1.965 2.839-5.24 2.402-8.734zm-2.402 4.367c-.436 1.747-1.31 4.148-3.275 5.458-.655.437-1.528.437-2.183.219-.655-.437-1.31-1.31-1.31-2.184 0-3.275 1.528-6.986 4.585-9.606.218-.219.873-.874 1.31-.874.218 0 .655.437.873 3.057.219 1.31.219 2.838 0 3.93zM36.462 13.1c-.219-.873 3.056-1.965 3.711-2.402v.219c-.218.436.437 0 .655.436.219.874-.436 1.529-.873 2.184-.437.436-1.528 1.528-2.402 1.091-.655-.218-.873-.873-1.091-1.528zm21.396 12.882s-.218.436-.436.436c-.219 0-.219-.218-.437-.436-.655.655-1.092 1.31-1.747 1.965s-1.528 1.091-2.183 1.746c-1.092.655-3.493 1.31-3.93-.436-.437-2.184 0-4.367.655-6.55.437-1.529 1.31-2.839.218-4.367-1.31-1.965-3.493-1.528-5.24-.437-3.275 1.965-4.803 5.24-6.55 8.515-.655 1.092-1.31 1.965-2.183 2.62-.873.655-1.747 1.529-2.838 1.965 0 0-.874-.218.873-4.585.437-1.091.873-2.183 1.528-3.275.437-1.091 1.092-1.965 1.31-3.056.219-.437.219-1.092.219-1.529-.219-1.091-1.31-1.091-2.184-1.091-1.31 0-5.458 1.528-5.458 1.528l.218-.655c.874-2.402.655-4.803 0-7.205-.218-.437-.218-1.092-.436-1.528-.437-1.31-1.092-2.184-1.965-3.057v-.218c-4.585-5.022-13.319-5.24-19.65-3.057-2.184.655-6.55 2.183-6.55 5.022 0 .655.436 1.091 1.091 1.31.437.218.655 0 .874-.219.218-1.091.655-1.746 1.31-2.183 2.401-1.528 4.803-2.62 7.641-3.275 1.747-.218 3.494-.437 5.24-.218 3.712.436 7.642 1.965 9.17 5.458 1.31 2.838.874 6.113 0 8.952-.218.436-.436 1.091-.655 1.528-.218.655-.655.873-1.31 1.092l-13.1 6.55c-.655.218-1.31.655-1.965 1.091 0-.436 2.62-14.628 4.367-21.396.218-1.092 0-1.965-1.31-2.402h-.218c-.437 0-.874.655-.874.873-1.091 3.712-4.585 19.432-5.24 23.799 0 .218 0 .436-.218.655-.437.655-1.528 1.091-1.528 2.401 0 1.747 2.62 2.402 4.148 2.402.873 0 1.528-.218 2.402-.437 6.331-1.528 11.79-5.895 15.938-10.698.655-.873 1.092-1.31 1.528-2.183l5.895-2.184s-.436.655-.873 1.747c0 .218-1.965 4.148-2.402 5.022-.873 2.183-1.31 4.585.219 6.331 1.31 1.747 3.056 1.31 4.366 0 .219-.218 2.184-1.965 2.184-1.965.218.437.436.655.873.874.655.436 1.528.655 2.402.655.873-.219 1.31-.655 1.746-1.31 1.092-1.092 1.965-2.402 3.057-3.712 0-.218.218-.218.437-.437v.219c0 1.31.218 2.62.873 3.711.437.874 1.31 1.529 2.183 1.965 1.529.874 3.494 0 4.804-.873 1.528-1.092 2.838-2.62 3.493-4.148.218-.437.218-.655.218-1.092v-.655c.219.437 0 .437 0 .437zm-34.496-1.965c-1.747 2.62-5.24 5.021-8.079 6.55-1.31.655-2.838 1.31-4.585 1.746-.436.219-4.148.874-2.62-.436 1.965-1.747 4.585-2.839 6.769-4.149 1.746-.873 8.296-4.366 8.733-4.148 0 0 0 .218-.218.437zm24.89-3.494c-.219.219-1.31 1.965-1.965 2.839-1.965 2.62-5.24 6.768-5.677 6.331-.437-.436-.437-1.091-.218-1.528.218-1.092.655-2.183 1.31-3.275 1.31-1.965 3.711-6.113 6.768-5.022 0 .219 0 .437-.218.655zM89.735 31.44c-.873-.655-1.528-1.31-2.402-1.747-.436-.436-5.24-4.585-5.676-5.021l6.113-6.114.218-.218v-.655c0-.437.219-.873.437-1.092v-.655c0-.218 0-.655-.218-.873-.219.218-3.275 3.057-4.149 3.93l-4.148 3.93c-.873-.873-2.183-2.183-3.93-4.148v-.437s.218-.437.437-.655a6.635 6.635 0 0 0 1.091-1.528c.655-.874 1.31-1.747 1.747-2.62.655-1.092 1.31-1.965 1.965-3.057 1.31-2.183 1.747-3.93 1.31-5.458-.437-1.965-2.402-3.275-4.803-3.494-1.965 0-4.149.874-5.677 2.402-1.528 1.528-2.183 3.93-2.183 6.113 0 2.402.873 4.585 2.838 7.424-.655 1.091-1.31 1.965-2.183 3.056v.219c-.437.655-.874 1.091-1.31 1.746-.437.655-.874 1.092-1.31 1.747 0 .218-.219.218-.219.437-1.091 1.31-1.965 2.62-2.183 4.366-.218 1.747.655 3.712 2.402 4.149h.873c.873 0 1.965-.219 3.712-1.529 1.31-.873 2.62-1.746 3.711-2.838l.219-.218h.218c.218-.219 1.31-1.31 2.183-1.965 0 0 .219 0 .219-.219l.873-.873c.437.218 4.803 4.585 7.642 6.55.218.218.436.218.655.437 0 0 .218 0 .218.218.437.218 1.092.437 1.528 0 .219-.218.219-.218.219-.437.218-.218-.219-.873-.437-.873zm-17.03-21.178c.218-2.184 1.528-3.93 3.275-5.022.655-.437 1.747-.873 2.62-1.092h.218c.437 0 .874 0 1.092.219.873.218.873.873.873 1.31 0 .655-.218 1.31-.436 1.965-1.31 2.401-3.057 4.803-4.585 6.986-.437.437-.655 1.092-1.092 1.529l-.218.218c-1.529-1.965-1.965-4.148-1.747-6.113zM78.6 24.235l-.437.437-.655.655c-.436.436-1.091.873-1.528 1.31-.873.655-1.528 1.31-2.402 1.965l-.218.218c-1.092.873-2.62 2.183-4.148 2.183-.219 0-.437 0-.437-.218-.218-.218-.218-.437-.218-.655 0-.655.436-1.31.873-1.965 1.31-2.183 2.62-4.148 4.148-6.113l1.31-1.965s0-.219.219-.219h.218c.218.219.437.437.655.874.873 1.31 2.62 3.275 2.62 3.493z"></path>
</svg>