<svg xmlns="http://www.w3.org/2000/svg" xmlns:xlink="http://www.w3.org/1999/xlink" viewBox="0 0 1292 288">
  <defs>
    <clipPath id="c">
      <path fill="none" d="M303.37,42.3c2.5-2.5,6.7-2.5,9.2,0l27.8,27.8c2.4,2.7,2.3,6.8-.4,9.2-2.5,2.3-6.3,2.3-8.8,0l-27.8-27.8c-2.5-2.4-2.5-6.6,0-9.2q0,.1,0,0Zm-61.3,0c2.6-2.5,6.7-2.5,9.2,.1,2.5,2.5,2.5,6.6,0,9.1l-27.8,27.8c-2.4,2.7-6.6,2.8-9.2,.4-2.7-2.4-2.8-6.6-.4-9.2l.4-.4,27.8-27.8Zm35.2-1.9c3.6,0,6.5,2.9,6.5,6.5v39c-.2,3.6-3.2,6.4-6.8,6.2-3.3-.2-6-2.8-6.2-6.2V46.9c0-3.6,2.9-6.5,6.5-6.5,0,0,.1,0,0,0h0Z"></path>
    </clipPath>
    <clipPath id="e">
      <rect fill="none" x="-3801.83" y="-1470" width="4890.9" height="2751.1"></rect>
    </clipPath>
  </defs>
  <path fill="#3d4246" d="M212.57,145.1c5.9-3.3,13.1-3.3,19,0,5.8,3.3,9.5,9.4,9.5,16.1-.2,3.6-3.3,6.4-6.9,6.2-3.4-.2-6.1-2.9-6.2-6.2,0-2.1-1.1-4-3-5-1.8-1-4.1-1-5.9,0s-3,2.9-3,5c-.2,3.6-3.3,6.4-6.9,6.2-3.4-.2-6.1-2.9-6.2-6.2,.1-6.7,3.8-12.8,9.6-16.1Zm125.6,44.9c7.8-.1,14.3,6.2,14.4,14,0,3.6-2.9,6.6-6.6,6.6s-6.6-2.9-6.6-6.6h0c0-.4-.2-.8-.6-1.1-.4-.2-.9-.2-1.2,0-.4,.2-.6,.6-.6,1.1,0,3.6-2.9,6.6-6.6,6.6s-6.6-2.9-6.6-6.6h0c.1-7.8,6.5-14.1,14.4-14ZM275.97,15.4c86.7,0,157.3,90.3,157.3,201.2v.6c-.2,30.7-25.2,55.4-55.9,55.3h-17.8c-.4-.6-.9-1.1-1.4-1.5-11.9-8.7-11.1-19.2-9.6-24.8,24,1.3,35.5-8,40.9-16.5,6.9-10.7,6.2-23.8,2-30.6-3.2-5.3-8.9-5.9-13.5-6.5-6.2-.7-8.7-1.4-10.3-5.4-5.2-13.2-22.4-16.3-31.4-17-1.2-6.6-.9-13.3,1-19.7,1.1-3.4-.8-7.1-4.2-8.2-.9-.3-1.8-.4-2.6-.3-9,.9-17.6,4.2-24.9,9.5-4.6-17.7-17.4-33.4-41-38.6-29.4-6.5-50.8-5.2-63.5,3.8-6.1,4-10.1,10.5-11,17.8-1.3,10.6-10.5,13.3-26.6,17.1l-4.1,1c-8.5,2.1-13.2,10.8-11.9,22.4,1.7,14.5,12.4,30,29.3,30.3,20.6,.3,34,5,39.7,14.1,6.7,10.6,4.4,28.5-6.7,53.3h-35.1c-30.7,.1-55.7-24.7-55.9-55.3v-.6c-.1-111.2,70.5-201.4,157.2-201.4Zm48.6,163.5c.9,2.7,3.4,4.5,6.2,4.5h.5c6.9,0,21.3,2.1,24,8.9,4.6,11.7,14.8,12.8,20.9,13.6,1.4,.1,2.7,.3,4.1,.7,1.9,5.5,1.1,11.6-2.1,16.4-5.4,8.4-16.9,11.9-33.4,10.1-2.6-.3-5.2,1-6.5,3.4-5.9,11.6-4.9,25.6,2.8,36.2h-53.2c-13-32.4,3.4-63.4,6-68.2,6.1-5.8,10.6-14.8,12.5-26,.6-3.7,.9-7.4,.9-11.1,4.3-4.4,9.5-7.8,15.2-9.9-.6,7.2,.1,14.5,2.1,21.4h0Zm-96.9,33.6c-8.4-13.2-25-19.8-50.7-20.1-10.5-.2-15.7-11.5-16.5-18.6-.5-4.2,.4-7.8,2-8.2l4.1-1c16-3.7,34.2-7.9,36.7-28.1,.5-3.6,2.6-6.8,5.6-8.7,5.4-3.8,19.6-9.1,53.3-1.7,31,6.8,34.7,34.8,32.1,50.3-2.3,13.4-9.6,23-17,22.1-3.6-.2-6.8-2-8.8-5-5.8-9.1-1.5-27.9,.6-34.3,1.1-3.4-.7-7.1-4.2-8.3-3.4-1.1-7.1,.7-8.3,4.2h0c-1,3-9.3,29.5,.8,45.4,4.1,6.3,10.8,10.4,18.3,11h1.3c-5.3,14.1-10.6,36.9-2.4,61.4h-50.4c11.2-26.8,12.4-46.5,3.7-60.3l-.2-.1ZM275.97,2.3c-93.9,0-170.3,96.1-170.3,214.3v.7c.3,37.9,31.1,68.4,69,68.4h202.7c37.9,0,68.7-30.5,69-68.4v-.7c-.1-118.1-76.5-214.3-170.4-214.3Z"></path>
  <path fill="#3d4246" d="M303.37,42.3c2.5-2.5,6.7-2.5,9.2,0l27.8,27.8c2.4,2.7,2.3,6.8-.4,9.2-2.5,2.3-6.3,2.3-8.8,0l-27.8-27.8c-2.5-2.4-2.5-6.6,0-9.2q0,.1,0,0Zm-61.3,0c2.6-2.5,6.7-2.5,9.2,.1,2.5,2.5,2.5,6.6,0,9.1l-27.8,27.8c-2.4,2.7-6.6,2.8-9.2,.4-2.7-2.4-2.8-6.6-.4-9.2l.4-.4,27.8-27.8Zm35.2-1.9c3.6,0,6.5,2.9,6.5,6.5v39c-.2,3.6-3.2,6.4-6.8,6.2-3.3-.2-6-2.8-6.2-6.2V46.9c0-3.6,2.9-6.5,6.5-6.5,0,0,.1,0,0,0h0Z"></path>
  <g>
    <path id="b" fill="#3d4246" d="M303.37,42.3c2.5-2.5,6.7-2.5,9.2,0l27.8,27.8c2.4,2.7,2.3,6.8-.4,9.2-2.5,2.3-6.3,2.3-8.8,0l-27.8-27.8c-2.5-2.4-2.5-6.6,0-9.2q0,.1,0,0Zm-61.3,0c2.6-2.5,6.7-2.5,9.2,.1,2.5,2.5,2.5,6.6,0,9.1l-27.8,27.8c-2.4,2.7-6.6,2.8-9.2,.4-2.7-2.4-2.8-6.6-.4-9.2l.4-.4,27.8-27.8Zm35.2-1.9c3.6,0,6.5,2.9,6.5,6.5v39c-.2,3.6-3.2,6.4-6.8,6.2-3.3-.2-6-2.8-6.2-6.2V46.9c0-3.6,2.9-6.5,6.5-6.5,0,0,.1,0,0,0h0Z"></path>
    <g clip-path="url(#c)">
      <g>
        <rect fill="#3d4246" x="-3801.83" y="-1470" width="4890.9" height="2751.1"></rect>
        <g>
          <rect id="d" fill="#3d4246" x="-3801.83" y="-1470" width="4890.9" height="2751.1"></rect>
          <g clip-path="url(#e)">
            <rect fill="#3d4246" x="209.47" y="37.2" width="136.1" height="57.8"></rect>
          </g>
        </g>
      </g>
    </g>
  </g>
  <g>
    <path fill="#3d4246" d="M528.54,230.57c-6.95,0-13.68-.65-20.18-1.93-6.5-1.29-12.39-3.28-17.67-5.99-2.45-1.29-4.09-2.83-4.92-4.63-.84-1.8-1.1-3.64-.77-5.5,.32-1.87,1.09-3.51,2.32-4.92,1.22-1.42,2.73-2.38,4.54-2.9,1.8-.52,3.67-.26,5.6,.77,5.66,2.83,11.03,4.66,16.12,5.5,5.08,.84,9.43,1.25,13.03,1.25,8.62,0,15.09-2.09,19.4-6.27,4.31-4.18,6.47-10.4,6.47-18.63v-17.38h1.74c-1.93,6.56-5.96,11.81-12.07,15.74-6.12,3.93-13.03,5.89-20.76,5.89-8.49,0-15.9-1.96-22.2-5.89-6.31-3.93-11.2-9.43-14.67-16.51-3.48-7.08-5.21-15.32-5.21-24.71,0-7.08,1-13.48,2.99-19.21,1.99-5.73,4.83-10.65,8.49-14.77,3.67-4.12,8.11-7.3,13.32-9.56,5.21-2.25,10.97-3.38,17.28-3.38,7.98,0,14.96,1.96,20.95,5.89,5.99,3.93,9.88,9.11,11.68,15.54l-1.93,4.83v-13.71c0-3.99,1.06-7.01,3.19-9.07,2.12-2.06,5.05-3.09,8.78-3.09s6.82,1.03,8.88,3.09c2.06,2.06,3.09,5.09,3.09,9.07v74.33c0,15.32-4.05,26.84-12.16,34.56-8.11,7.72-19.89,11.58-35.33,11.58Zm-.58-57.34c5.02,0,9.33-1.16,12.94-3.48,3.6-2.32,6.4-5.63,8.4-9.94,1.99-4.31,2.99-9.43,2.99-15.35,0-8.88-2.19-15.86-6.56-20.95-4.38-5.08-10.3-7.63-17.76-7.63-5.02,0-9.33,1.16-12.94,3.48-3.6,2.32-6.4,5.6-8.4,9.85-2,4.25-2.99,9.33-2.99,15.25,0,8.88,2.19,15.9,6.56,21.04,4.37,5.15,10.3,7.72,17.76,7.72Z"></path>
    <path fill="#3d4246" d="M633.38,195.82c-10.69,0-18.73-3.06-24.13-9.17-5.41-6.11-8.11-15.09-8.11-26.93V68.39c0-3.99,1.03-7.01,3.09-9.07,2.06-2.06,5.02-3.09,8.88-3.09s6.85,1.03,8.98,3.09c2.12,2.06,3.19,5.09,3.19,9.07v90.16c0,5.92,1.25,10.3,3.76,13.13,2.51,2.83,6.08,4.25,10.72,4.25,1.03,0,1.99-.03,2.9-.1,.9-.06,1.8-.16,2.7-.29,1.8-.26,3.02,.23,3.67,1.45,.64,1.22,.96,3.7,.96,7.43,0,3.22-.65,5.73-1.93,7.53-1.29,1.8-3.41,2.9-6.37,3.28-1.29,.13-2.64,.26-4.05,.39-1.42,.13-2.83,.19-4.25,.19Z"></path>
    <path fill="#3d4246" d="M704.81,195.82c-9.78,0-18.28-1.99-25.48-5.99-7.21-3.99-12.81-9.68-16.8-17.09-3.99-7.4-5.99-16.12-5.99-26.16,0-7.59,1.13-14.38,3.38-20.37,2.25-5.99,5.5-11.13,9.75-15.45,4.25-4.31,9.33-7.59,15.25-9.85,5.92-2.25,12.55-3.38,19.89-3.38,9.78,0,18.28,2,25.49,5.99,7.21,3.99,12.81,9.65,16.8,16.99,3.99,7.34,5.99,16.03,5.99,26.06,0,7.6-1.13,14.42-3.38,20.47-2.25,6.05-5.5,11.23-9.75,15.54-4.25,4.31-9.33,7.6-15.25,9.85-5.92,2.25-12.55,3.38-19.89,3.38Zm0-18.34c4.76,0,8.94-1.16,12.55-3.48,3.6-2.32,6.4-5.76,8.4-10.33,1.99-4.57,2.99-10.26,2.99-17.09,0-10.3-2.19-17.99-6.56-23.07-4.38-5.08-10.17-7.63-17.38-7.63-4.76,0-8.95,1.13-12.55,3.38-3.6,2.25-6.4,5.67-8.4,10.23-2,4.57-2.99,10.27-2.99,17.09,0,10.17,2.19,17.86,6.56,23.07,4.37,5.21,10.17,7.82,17.38,7.82Z"></path>
    <path fill="#3d4246" d="M807.53,195.43c-3.22,0-5.99-.81-8.3-2.41-2.32-1.61-4.18-4.15-5.6-7.63l-28-71.44c-1.16-3.09-1.51-5.82-1.06-8.21,.45-2.38,1.64-4.28,3.57-5.7,1.93-1.42,4.5-2.12,7.72-2.12,2.83,0,5.15,.68,6.95,2.03,1.8,1.35,3.35,3.89,4.63,7.63l23.36,64.29h-4.44l24.13-65.84c1.03-2.83,2.41-4.89,4.15-6.18,1.74-1.29,4.02-1.93,6.85-1.93s5.15,.68,6.95,2.03c1.8,1.35,3.15,3.38,4.05,6.08l23.75,65.84h-4.05l23.56-64.87c1.29-3.48,2.93-5.85,4.92-7.14,1.99-1.29,4.21-1.93,6.66-1.93,3.09,0,5.47,.77,7.14,2.32,1.67,1.54,2.64,3.51,2.9,5.89,.26,2.38-.19,4.99-1.35,7.82l-27.8,71.44c-1.29,3.35-3.12,5.86-5.5,7.53-2.38,1.67-5.18,2.51-8.4,2.51s-6.02-.84-8.4-2.51c-2.38-1.67-4.22-4.18-5.5-7.53l-25.29-67h11.01l-24.71,66.8c-1.29,3.48-3.09,6.05-5.41,7.72-2.32,1.67-5.15,2.51-8.49,2.51Z"></path>
    <path fill="#3d4246" d="M990.17,195.82c-7.98,0-14.96-1.99-20.95-5.99-5.99-3.99-9.94-9.33-11.87-16.03l2.12-4.83v14.09c0,3.99-1.03,7.05-3.09,9.17-2.06,2.12-4.96,3.19-8.69,3.19s-6.82-1.06-8.88-3.19c-2.06-2.12-3.09-5.18-3.09-9.17V68.39c0-3.99,1.03-7.01,3.09-9.07,2.06-2.06,5.02-3.09,8.88-3.09s6.85,1.03,8.98,3.09c2.12,2.06,3.19,5.09,3.19,9.07v50.2h-2.32c2.06-6.31,6.05-11.39,11.97-15.25,5.92-3.86,12.81-5.79,20.66-5.79,8.37,0,15.64,2,21.82,5.99,6.18,3.99,11,9.62,14.48,16.89,3.48,7.27,5.21,16,5.21,26.16s-1.74,18.76-5.21,26.16c-3.48,7.4-8.33,13.1-14.58,17.09-6.24,3.99-13.49,5.99-21.72,5.99Zm-6.76-18.34c4.76,0,8.94-1.16,12.55-3.48,3.6-2.32,6.4-5.76,8.4-10.33,1.99-4.57,2.99-10.26,2.99-17.09,0-10.3-2.19-17.99-6.56-23.07-4.38-5.08-10.17-7.63-17.38-7.63-4.76,0-8.95,1.13-12.55,3.38-3.6,2.25-6.4,5.67-8.4,10.23-2,4.57-2.99,10.27-2.99,17.09,0,10.17,2.19,17.86,6.56,23.07,4.37,5.21,10.17,7.82,17.38,7.82Z"></path>
    <path fill="#3d4246" d="M1063.54,80.17c-4.51,0-8.01-1.13-10.52-3.38-2.51-2.25-3.76-5.37-3.76-9.36s1.25-7.27,3.76-9.46c2.51-2.19,6.02-3.28,10.52-3.28s8.17,1.1,10.62,3.28c2.44,2.19,3.67,5.34,3.67,9.46s-1.22,7.11-3.67,9.36c-2.45,2.25-5.99,3.38-10.62,3.38Zm0,115.07c-3.86,0-6.82-1.16-8.88-3.48-2.06-2.32-3.09-5.53-3.09-9.65V111.25c0-4.25,1.03-7.5,3.09-9.75,2.06-2.25,5.02-3.38,8.88-3.38s6.85,1.13,8.98,3.38c2.12,2.25,3.19,5.5,3.19,9.75v70.86c0,4.12-1.03,7.34-3.09,9.65-2.06,2.32-5.09,3.48-9.07,3.48Z"></path>
    <path fill="#3d4246" d="M1147.33,195.82c-10.69,0-19.89-1.99-27.61-5.99-7.72-3.99-13.68-9.65-17.86-16.99-4.18-7.34-6.27-16.03-6.27-26.06s2.03-18.34,6.08-25.68c4.05-7.34,9.65-13.1,16.8-17.28,7.14-4.18,15.28-6.27,24.42-6.27,6.69,0,12.71,1.1,18.05,3.28,5.34,2.19,9.91,5.34,13.71,9.46,3.79,4.12,6.69,9.11,8.69,14.96,1.99,5.86,2.99,12.45,2.99,19.79,0,2.32-.81,4.09-2.41,5.31-1.61,1.22-3.89,1.83-6.85,1.83h-61.98v-13.9h54.25l-3.09,2.9c0-5.92-.87-10.88-2.61-14.87-1.74-3.99-4.25-7.05-7.53-9.17-3.28-2.12-7.37-3.19-12.26-3.19-5.41,0-10.01,1.25-13.8,3.76-3.8,2.51-6.69,6.05-8.69,10.62-2,4.57-2.99,10.01-2.99,16.31v1.35c0,10.56,2.48,18.44,7.43,23.65,4.95,5.21,12.26,7.82,21.91,7.82,3.35,0,7.11-.42,11.3-1.26,4.18-.84,8.14-2.28,11.87-4.34,2.7-1.54,5.08-2.22,7.14-2.03,2.06,.19,3.7,.94,4.92,2.22,1.22,1.29,1.96,2.87,2.22,4.73,.26,1.87-.1,3.77-1.06,5.7-.97,1.93-2.61,3.6-4.92,5.02-4.51,2.83-9.69,4.92-15.54,6.27-5.86,1.35-11.3,2.03-16.31,2.03Z"></path>
  </g>
</svg>