<svg style="fill:black;" xmlns="http://www.w3.org/2000/svg" viewBox="0 0 2291.05 435.23">
  <path d="M1751.21,172.73c-10.42-4.42-21.25-8.51-31.71-12.47-14.45-5.45-29.39-11.1-43.35-17.66-4.43-2.08-8.26-4-11.72-5.9-4.23-2.27-18-10.51-17.69-21.33.2-6.28,6.14-9.65,11.65-10.7a44.1,44.1,0,0,1,8.55-.83c45.11,0,78,40.45,84.34,48.56a12.77,12.77,0,0,0,10.08,4.94,13.19,13.19,0,0,0,3.36-.44l90.9-23.87a13.41,13.41,0,0,0,8.68-7.15,12.22,12.22,0,0,0,.22-10.27C1844.24,69.14,1771.76,0,1657.62,0c-136,0-196.93,63.57-196.93,126.56,0,87.9,94.65,126.79,135.07,143.4,3,1.25,5.71,2.35,8,3.32,29.08,12.53,38,25.16,36.84,30.59-.68,3.32-5.73,5.39-13.16,5.39-51.1,0-82.7-35.32-94.23-47.14a15.92,15.92,0,0,0-11.48-4.84,16.23,16.23,0,0,0-4.14.54c-2,.53-48.38,13-66.26,18.85l-3.86,1.25c-13.2,4.22-25.67,8.22-29.25,16.91-1.61,3.91-1.21,8.24,1.29,13.06,46.92,79.83,139.23,127.34,238.14,127.34,134.11,0,202.11-49.58,202.11-144,0-25.09-12-54.27-29.24-71C1807.88,198.38,1777.72,184,1751.21,172.73Z" />
  <path d="M428.9,15.48H252.05a8.89,8.89,0,0,0-8.9,8.9V161h-48.5V24.38a8.89,8.89,0,0,0-8.9-8.9H8.91A8.9,8.9,0,0,0,0,24.38V409.11A8.91,8.91,0,0,0,8.91,418H185.75a8.9,8.9,0,0,0,8.9-8.91V272.52h48.5V409.11a8.9,8.9,0,0,0,8.9,8.91H428.9a8.91,8.91,0,0,0,8.9-8.91V24.38A8.9,8.9,0,0,0,428.9,15.48Z" />
  <path d="M1440.36,15.48H1264.71a8.89,8.89,0,0,0-8.42,6L1196.68,195a8.91,8.91,0,0,1-16.85,0l-59.61-173.5a8.89,8.89,0,0,0-8.42-6H936.15a8.91,8.91,0,0,0-8.39,11.9l137.58,384.73a8.91,8.91,0,0,0,8.39,5.91h229a8.91,8.91,0,0,0,8.39-5.91L1448.75,27.38A8.91,8.91,0,0,0,1440.36,15.48Z" />
  <path d="M2282.15,15.48H1909.29a8.9,8.9,0,0,0-8.9,8.9v116.8a8.91,8.91,0,0,0,8.9,8.91h80.21a8.89,8.89,0,0,1,8.9,8.9V409.11a8.91,8.91,0,0,0,8.91,8.91h176.84a8.91,8.91,0,0,0,8.91-8.91V159a8.89,8.89,0,0,1,8.9-8.9h80.19a8.9,8.9,0,0,0,8.9-8.91V24.38A8.89,8.89,0,0,0,2282.15,15.48Z" />
  <path d="M679,305.33l60,108.12a8.88,8.88,0,0,0,7.77,4.55h174.3a8.89,8.89,0,0,0,7.77-13.2L866.3,292.09a8.73,8.73,0,0,1,2.26-11c31.56-26,52.41-70.37,52.41-120.69,0-79.9-52.53-144.95-117.14-144.95H493a8.93,8.93,0,0,0-8.9,8.93V409.1A8.89,8.89,0,0,0,493,418H669.82a8.9,8.9,0,0,0,8.9-8.9ZM707,188.2h-28.3V138H707c12.07,0,22.29,12.62,22.29,25.1S719.09,188.2,707,188.2Z" />
</svg>