<svg xmlns="http://www.w3.org/2000/svg" xmlns:xlink="http://www.w3.org/1999/xlink" viewBox="0 0 323.35 62.93">
  <defs>
    <linearGradient id="linear-gradient" x1="5.43" y1="32.53" x2="317.55" y2="32.53" gradientTransform="matrix(1, 0, 0, -1, 0, 64)" gradientUnits="userSpaceOnUse">
      <stop offset="0.19" stop-color="#10a4ef" />
      <stop offset="0.42" stop-color="#37cd8d" />
      <stop offset="0.69" stop-color="#ffad00" />
      <stop offset="1" stop-color="#fe5318" />
    </linearGradient>
  </defs>
  <g>
    <path fill="url(#linear-gradient)" d="M85.6.59a30.92,30.92,0,1,0,30.92,30.92h0A31,31,0,0,0,85.6.59Zm0,54.83A23.92,23.92,0,1,1,109.52,31.5,23.92,23.92,0,0,1,85.6,55.42ZM30,6.08V.82a.5.5,0,0,1,.5-.5h13a.5.5,0,0,1,.5.5V39.75c0,12-9.49,22-21.15,22.5H22a22,22,0,0,1-22-22v-1H7v1a15,15,0,0,0,15,15l.78,0A15.24,15.24,0,0,0,37,39.8V7.19a.61.61,0,0,0-.61-.61H30.45A.5.5,0,0,1,30,6.08ZM246.86,0h1V6.77h-1c-3.85,0-7.71,16.56-9.78,25.46-3.84,16.48-7.16,30.7-16.39,30.7s-12.54-14.22-16.38-30.69c-2.07-8.91-5.93-25.47-9.79-25.47h-1V0h1c9.24,0,12.55,14.23,16.39,30.7,2.07,8.9,5.93,25.46,9.78,25.46s7.71-16.56,9.79-25.46C234.32,14.22,237.63,0,246.86,0ZM295,30.7c3.7-15.85,6.91-29.61,15.36-30.64,0,0,.56-.06,1-.06,6.55,0,9.19,8.3,11.73,18.35l.25,1L316.78,21l-.25-1c-.16-.65-.33-1.31-.51-2s-.31-1.18-.48-1.76-.3-1-.46-1.57-.28-.93-.43-1.39-.26-.81-.4-1.21-.25-.71-.38-1.06-.23-.61-.35-.91-.21-.51-.32-.77l-.3-.64-.27-.53c-.08-.15-.16-.29-.25-.43A3.94,3.94,0,0,0,312,7.2a1.25,1.25,0,0,0-.4-.36.89.89,0,0,0-.56,0,2.38,2.38,0,0,0-.86.49,6,6,0,0,0-.5.51,6.14,6.14,0,0,0-.49.65c-.18.26-.34.52-.49.79s-.34.6-.49.9-.33.68-.48,1-.32.74-.47,1.12-.32.79-.47,1.2-.31.84-.46,1.27l-.45,1.34c-.15.46-.29.92-.44,1.39L305,18.93c-.15.49-.28,1-.42,1.46s-.27,1-.4,1.47-.27,1-.39,1.47l-.38,1.46L303,26.24c-.12.47-.23.94-.35,1.41s-.21.91-.32,1.36-.21.88-.31,1.31-.2.83-.29,1.24c-.06.23-.11.45-.16.67-3.84,16.48-7.15,30.7-16.38,30.7s-12.55-14.22-16.38-30.69c-2.08-8.91-5.94-25.47-9.79-25.47h-1V0h1c9.23,0,12.55,14.23,16.38,30.7,2.08,8.9,5.94,25.46,9.79,25.46S292.94,39.6,295,30.7C298.85,14.22,302.17,0,311.4,0M156.6.59a30.92,30.92,0,1,0,30.92,30.92h0A31,31,0,0,0,156.6.59Zm0,54.83A23.92,23.92,0,1,1,180.52,31.5,23.92,23.92,0,0,1,156.6,55.42Z" />
  </g>
</svg>