
<svg xmlns="http://www.w3.org/2000/svg" width="197" height="36" viewBox="0 0 197 36" fill="none">
  <g clip-path="url(#clip0_158_422)">
    <path d="M9.26157 13.1904L0.395848 23.2058C0.395848 23.2058 -1.32702 28.9509 2.40698 32.6849C2.40698 32.6849 7.0024 37.8568 13.609 34.1229L24.2378 23.494C24.2378 23.494 25.6757 22.3444 27.6835 23.494L25.0992 15.7378L16.4815 12.8652L9.25822 13.1937L9.26157 13.1904Z" fill="#00ECC1"/>
    <path d="M62.6801 31.6293C63.8901 32.8393 65.3113 33.8047 66.8968 34.4751C68.509 35.1723 70.2553 35.5208 71.9983 35.5208C73.6642 35.5477 75.3033 35.2527 76.8317 34.6628C78.3635 34.0728 79.7579 33.1846 80.9679 32.0852C81.7623 31.4349 83.1467 30.1277 84.1321 28.0227C85.198 25.7434 85.255 23.682 85.2114 22.6396V6.47681C85.2114 5.88688 84.7556 5.34723 84.1388 5.26679H78.8529C78.1825 5.26679 77.6429 5.8299 77.6429 6.47681V22.12C77.6429 22.8709 77.482 23.625 77.187 24.3222C76.8921 24.9926 76.4898 25.6127 75.977 26.1222C74.9044 27.1948 73.5536 27.8149 72.0218 27.7881C71.271 27.7881 70.5168 27.6272 69.8464 27.3322C68.4755 26.7423 67.4029 25.6395 66.8398 24.2719C66.5716 23.6016 66.4376 22.8742 66.4376 22.1502V6.43659C66.4376 5.76622 65.9013 5.22656 65.2275 5.22656H60.0723C59.402 5.22656 58.8623 5.78968 58.8623 6.43659V22.1468C58.8623 23.92 59.2109 25.6931 59.9081 27.3289C60.5785 28.9679 61.5203 30.3891 62.6734 31.626L62.6801 31.6293Z" fill="white"/>
    <path d="M137.527 5.22949H116.859C116.176 5.22949 115.626 5.80602 115.626 6.46298V11.5545C115.626 12.2383 116.176 12.788 116.859 12.788H118.23C118.914 12.788 119.464 13.3377 119.464 14.0215V21.9755C119.464 23.7855 119.819 25.5955 120.533 27.2379C121.931 30.4725 124.508 33.0769 127.743 34.4746C129.416 35.1886 131.195 35.5439 133.005 35.5439H137.638C138.322 35.5439 138.871 34.9674 138.871 34.3104V29.2122C138.871 28.5284 138.322 27.9787 137.638 27.9787H133.032C132.238 27.9787 131.47 27.8145 130.756 27.5128C130.073 27.2111 129.439 26.772 128.893 26.2525C128.343 25.7028 127.934 25.0726 127.659 24.3888C127.358 23.6749 127.193 22.8805 127.22 22.0861V14.0483C127.22 13.4181 127.686 12.8986 128.316 12.8148H137.554C138.238 12.8148 138.787 12.2383 138.787 11.5813V6.51661C138.734 5.80266 138.281 5.22949 137.527 5.22949Z" fill="white"/>
    <path d="M195.814 35.5238H189.908C189.556 35.5238 189.237 35.3629 188.996 35.0947L176.899 21.1911V29.0111C176.906 29.0647 176.909 29.1217 176.909 29.1753V34.3406C176.909 35.0042 176.37 35.5439 175.706 35.5439H170.547C169.877 35.5439 169.337 35.0042 169.337 34.3406C169.337 34.3406 169.311 33.9216 169.311 33.8177V6.95571C169.311 6.8518 169.321 6.75125 169.337 6.65404V6.43282C169.337 5.76914 169.877 5.22949 170.547 5.22949H175.706C176.37 5.22949 176.909 5.76914 176.909 6.43282V11.5981C176.909 11.6517 176.903 11.7087 176.899 11.759V18.9353L188.262 5.65853C188.477 5.39038 188.829 5.22949 189.174 5.22949H195.08C196.075 5.25631 196.612 6.40935 195.998 7.19034L185.601 19.3577C185.198 19.8135 185.198 20.4839 185.601 20.9398L196.752 33.5629C197.339 34.3439 196.806 35.497 195.814 35.5238Z" fill="white"/>
    <path d="M113.987 14.9571C113.877 13.8644 113.609 12.8018 113.18 11.8097C112.63 10.5192 111.845 9.35943 110.843 8.35722L110.826 8.33376C109.794 7.36506 108.611 6.60754 107.33 6.08464C106.013 5.52488 104.545 5.22656 103.087 5.22656H89.4381C88.7611 5.22656 88.208 5.77962 88.208 6.4567V34.3611C88.208 35.0147 88.7376 35.541 89.3879 35.541H94.5933C95.247 35.541 95.7799 35.008 95.7799 34.3544V26.2998H103.087C104.548 26.2998 106.017 26.0015 107.324 25.4485C108.614 24.9222 109.791 24.1613 110.83 23.196L110.847 23.1725C111.845 22.177 112.633 21.0139 113.176 19.7268C113.702 18.5134 113.987 17.2196 114.031 15.8721C114.031 15.8051 114.031 15.7414 114.031 15.6744L113.987 14.947V14.9571ZM106.281 16.8542C105.919 17.6989 105.249 18.3592 104.401 18.7045C103.995 18.8687 103.539 18.9525 103.087 18.9525H95.7933V12.5839H103.087C103.536 12.5839 103.989 12.6711 104.391 12.832C105.242 13.1772 105.913 13.8375 106.281 14.6889C106.429 15.0342 106.523 15.4196 106.549 15.7984C106.516 16.1604 106.422 16.5224 106.281 16.8542Z" fill="white"/>
    <path d="M154.458 35.5542C150.332 35.5542 146.93 34.2269 144.346 31.6091C141.768 28.9946 140.461 25.4818 140.461 21.1747V20.4104C140.461 17.5479 141.024 14.9469 142.137 12.681C143.26 10.3917 144.862 8.58164 146.9 7.29787C148.941 6.01745 151.244 5.36719 153.744 5.36719C157.723 5.36719 160.854 6.67107 163.053 9.23861C165.215 11.7693 166.314 15.3658 166.314 19.9244V20.7188C166.314 22.0897 165.198 23.2059 163.827 23.2059H148.391C148.646 24.8919 149.303 26.2595 150.329 27.2784C151.522 28.465 152.99 29.0415 154.817 29.0415C156.922 29.0415 158.658 28.3778 160.126 27.0103C160.599 26.5712 161.209 26.3298 161.849 26.3298C162.489 26.3298 163.093 26.5712 163.555 27.0136L164.521 27.9354C165.493 28.8639 165.55 30.4225 164.648 31.4113C163.646 32.5107 162.422 33.4191 161.021 34.1096C159.074 35.0682 156.868 35.5542 154.462 35.5542H154.458ZM158.601 17.1021C158.447 15.4228 157.964 14.1122 157.173 13.2441C156.352 12.3424 155.223 11.9034 153.721 11.9034C152.219 11.9034 151.086 12.3994 150.188 13.4251C149.397 14.3268 148.837 15.5636 148.522 17.1021H158.601Z" fill="white"/>
    <path d="M154.458 34.7736C150.53 34.7736 147.346 33.5368 144.905 31.0631C142.465 28.5894 141.245 25.2945 141.245 21.1784V20.4142C141.245 17.6589 141.775 15.1986 142.841 13.03C143.903 10.8613 145.395 9.17532 147.319 7.96529C149.239 6.75861 151.385 6.15527 153.748 6.15527C157.505 6.15527 160.411 7.35525 162.459 9.75184C164.507 12.1484 165.533 15.5439 165.533 19.9315V20.7259C165.533 21.6678 164.769 22.432 163.827 22.432H148.391C147.905 22.432 147.527 22.8677 147.604 23.3471C147.902 25.2007 148.626 26.6956 149.776 27.8419C151.11 29.1693 152.789 29.833 154.814 29.833C157.103 29.833 159.05 29.0855 160.656 27.5939C161.323 26.9738 162.352 26.9604 163.009 27.5905L163.974 28.5123C164.645 29.1525 164.688 30.2117 164.065 30.8955C163.123 31.9279 161.99 32.7692 160.669 33.4195C158.822 34.3278 156.754 34.7837 154.458 34.7837V34.7736ZM153.717 11.1228C152.015 11.1228 150.644 11.7194 149.598 12.9093C148.683 13.9517 148.056 15.3528 147.721 17.1126C147.644 17.5114 147.946 17.8869 148.351 17.8869H159.406V17.4276C159.268 15.3528 158.718 13.7842 157.746 12.7216C156.778 11.6591 155.434 11.1261 153.714 11.1261L153.717 11.1228Z" fill="white"/>
    <path d="M8.43988 14.0115L20.2184 2.23298C20.2184 2.23298 24.8138 -1.78927 30.5589 2.23298L49.5172 21.1912C49.5172 21.1912 53.8277 27.5095 48.0792 32.6815C48.0792 32.6815 44.0569 38.1383 36.589 33.2546L18.4922 15.731C18.4922 15.731 15.0464 11.4205 8.43652 14.0081L8.43988 14.0115Z" fill="#00ECC1"/>
  </g>
  <defs>
    <clipPath id="clip0_158_422">
      <rect width="197" height="35.1076" fill="white" transform="translate(0 0.446289)"/>
    </clipPath>
  </defs>
</svg>